# xmcd
#
# Track frame offsets: 
#        187
#        16382
#        35475
#        47125
#        67302
#        81950
#        97362
#        124155
#        137210
#        156352
#        175422
#        193527
#        211520
#        226527
#
# Disc length: 3353 seconds
#
# Revision: 3
# Processed by: cddbd v1.5.2PL0 Copyright (c) Steve Scherf et al.
# Submitted via: ExactAudioCopyFreeDBPlugin 1.0
#
DISCID=c60d170e
DTITLE=Free - The Best Of - All Right Now (All Tracks Remixed by Bob C
DTITLE=learmountain 1991)
DYEAR=1991
DGENRE=Rock
TTITLE0=Wishing Well
TTITLE1=All Right Now
TTITLE2=Little Bit Of love
TTITLE3=Come Together In The Morning
TTITLE4=The Stealer
TTITLE5=Sail On
TTITLE6=Mr. Big
TTITLE7=My Brother Jake
TTITLE8=The Hunter
TTITLE9=Be My Friend
TTITLE10=Travellin' In Style
TTITLE11=Fire And Water
TTITLE12=Travelling Man
TTITLE13=Don't Say You Love Me
EXTD=YEAR: 1991 ID3G: 17
EXTT0=
EXTT1=
EXTT2=
EXTT3=
EXTT4=
EXTT5=
EXTT6=
EXTT7=
EXTT8=
EXTT9=
EXTT10=
EXTT11=
EXTT12=
EXTT13=
PLAYORDER=
